<svg xmlns="http://www.w3.org/2000/svg" width="87" height="57" viewBox="0 0 87 57">
  <g id="Logo" transform="translate(0 -4.136)">
    <path id="Caminho_232" data-name="Caminho 232" d="M243.95,4.183c.273-.163.446.166.593.339q14.2,17.759,28.4,35.508a.285.285,0,0,1-.215.49q-6.8.008-13.594,0a1.188,1.188,0,0,1-.933-.459q-7.052-8.81-14.1-17.624a1.25,1.25,0,0,1-.29-.853q0-8.512,0-17.025C243.813,4.427,243.807,4.253,243.95,4.183Z" transform="translate(-223.518 -0.003)" fill="#fff"/>
    <path id="Caminho_233" data-name="Caminho 233" d="M552.376,4.153a.291.291,0,0,1,.378.309q.011,8.516,0,17.032a1.327,1.327,0,0,1-.267.907q-2.143,2.681-4.287,5.36a1.215,1.215,0,0,1-1.017.461c-4.5,0-9,0-13.5,0a.285.285,0,0,1-.221-.49Q542.825,16.015,552.2,4.307A.466.466,0,0,1,552.376,4.153Z" transform="translate(-488.772 0)" fill="#fff"/>
    <path id="Caminho_234" data-name="Caminho 234" d="M335.031,539.9a6.382,6.382,0,1,1-4.894,3.79,6.4,6.4,0,0,1,4.894-3.79m.345,2.15a4.128,4.128,0,0,0-3.114,2.453,4.308,4.308,0,0,0,.294,3.97,4.1,4.1,0,0,0,2.788,1.886,4.016,4.016,0,0,0,3.292-.933,4.276,4.276,0,0,0-.194-6.6A4.011,4.011,0,0,0,335.376,542.049Z" transform="translate(-301.991 -491.449)" fill="#fff"/>
    <path id="Caminho_235" data-name="Caminho 235" d="M0,543.3a8.662,8.662,0,0,1,1.637-.069c.194.027.488-.073.6.145a7.169,7.169,0,0,1,.017.86q0,3.755,0,7.512,3.292-4.114,6.58-8.232a.632.632,0,0,1,.462-.273c.63-.027,1.26,0,1.89-.012a1.1,1.1,0,0,1,.7.116c-.734.967-1.511,1.9-2.263,2.853q-3.38,4.232-6.762,8.461a4.941,4.941,0,0,1-.515.607c-.2.163-.471.112-.707.125-.544-.019-1.092.029-1.634-.038Z" transform="translate(0 -494.552)" fill="#fff"/>
    <path id="Caminho_236" data-name="Caminho 236" d="M79.5,543.814a1.238,1.238,0,0,1,1.012-.5c.487,0,.974-.009,1.461,0,.168-.018.261.156.24.3v11.535c.022.148-.068.328-.24.31q-.9.01-1.809,0a.661.661,0,0,1-.52-.316q-1.564-1.964-3.132-3.923-1.592,1.983-3.175,3.973a.611.611,0,0,1-.47.265c-.691.015-1.382,0-2.074.008-.169-.011-.382.043-.487-.133,3.046-3.855,6.134-7.679,9.193-11.523m-1.718,5.577c.716.89,1.421,1.788,2.142,2.673q.008-2.677,0-5.353Q78.854,548.049,77.786,549.391Z" transform="translate(-64.263 -494.634)" fill="#fff"/>
    <path id="Caminho_237" data-name="Caminho 237" d="M240.476,543.613c-.016-.136.058-.3.215-.3.606-.015,1.215-.009,1.823,0a.252.252,0,0,1,.255.312q.005,4.833,0,9.666c1.686.006,3.372,0,5.056,0a.143.143,0,0,1,.12.249c-.439.565-.892,1.12-1.338,1.681a.655.655,0,0,1-.584.24c-1.777-.006-3.555.007-5.332-.006-.163.007-.231-.17-.216-.307Q240.476,549.383,240.476,543.613Z" transform="translate(-220.282 -494.629)" fill="#fff"/>
    <path id="Caminho_238" data-name="Caminho 238" d="M501.6,543.621a.251.251,0,0,1,.283-.309q4.608-.005,9.215,0c.142-.02.31.069.3.23.009.833,0,1.666,0,2.5a.727.727,0,0,1-.209.519c-.887,1.1-1.759,2.2-2.648,3.3-.044.077-.19.18-.079.269,1.344,1.689,2.7,3.371,4.04,5.061.1.081.1.273-.06.269-.8.017-1.594.009-2.39,0-.312,0-.489-.286-.661-.5q-1.85-2.321-3.705-4.637c-.092-.114-.233-.278-.1-.418,1.165-1.479,2.352-2.943,3.524-4.419-1.735-.008-3.47.015-5.2-.011-.031,3.251,0,6.5-.016,9.755a.227.227,0,0,1-.273.231c-.6,0-1.2.01-1.806,0-.16,0-.224-.178-.2-.311Q501.6,549.385,501.6,543.621Z" transform="translate(-459.52 -494.632)" fill="#fff"/>
    <path id="Caminho_239" data-name="Caminho 239" d="M651.111,543.63a.248.248,0,0,1,.247-.312c.574-.01,1.149,0,1.724,0a.635.635,0,0,1,.55.262l8.6,10.76c.247.331.543.629.757.984l-.083.134c-.695.035-1.392,0-2.088.016-.274,0-.606.028-.788-.224-1.077-1.336-2.143-2.68-3.215-4.02q-1.592,1.982-3.175,3.971a.616.616,0,0,1-.472.267c-.6.009-1.2.006-1.8,0a.248.248,0,0,1-.255-.313q0-5.762,0-11.524m2.289,3.089q0,2.676,0,5.351,1.073-1.337,2.141-2.677C654.826,548.5,654.118,547.6,653.4,546.718Z" transform="translate(-596.509 -494.635)" fill="#fff"/>
    <path id="Caminho_240" data-name="Caminho 240" d="M768.638,543.625c-.018-.133.041-.307.2-.31.572-.023,1.145,0,1.717-.01a.662.662,0,0,1,.589.244q3.309,4.131,6.611,8.267,0-4.1,0-8.2a.252.252,0,0,1,.277-.311c.606,0,1.211-.014,1.816.008.155.006.211.178.193.31v11.518c.018.131-.04.308-.2.31-.6.017-1.2.005-1.805.006a.6.6,0,0,1-.5-.245q-3.305-4.127-6.6-8.259c0,1.613,0,3.226,0,4.839.042.144-.163.267-.249.136-.633-.768-1.245-1.554-1.869-2.329a.752.752,0,0,1-.174-.557C768.638,547.237,768.634,545.431,768.638,543.625Z" transform="translate(-704.455 -494.627)" fill="#fff"/>
    <path id="Caminho_241" data-name="Caminho 241" d="M919.568,543.543c-.018-.157.149-.247.286-.229,2.525,0,5.05,0,7.576,0a.653.653,0,0,1,.581.242c.447.557.9,1.113,1.338,1.677a.146.146,0,0,1-.117.256c-1.32.01-2.641,0-3.963,0-.006,3.22.008,6.44.007,9.661a.249.249,0,0,1-.247.313c-.6.005-1.207.008-1.809,0a.213.213,0,0,1-.227-.229c-.021-3.248,0-6.5-.018-9.744-1.042,0-2.084,0-3.125,0-.138.016-.3-.079-.282-.236Q919.555,544.4,919.568,543.543Z" transform="translate(-842.402 -494.635)" fill="#fff"/>
  </g>
</svg>
